HIERARCHY
ROOT Pelvis
{
	OFFSET 0.000000 0.000000 0.000000
	CHANNELS 6 Xposition Yposition Zposition Xrotation Yrotation Zrotation
	JOINT LeftUpLeg_virtual
	{
		OFFSET 0.000000 0.000000 0.000000
		CHANNELS 3 Xrotation Yrotation Zrotation
		JOINT LeftUpLeg
		{
			OFFSET 8.479700 -4.795502 -0.379100
			CHANNELS 3 Xrotation Yrotation Zrotation
			JOINT LeftLeg
			{
				OFFSET 0.024144 -32.555107 0.112900
				CHANNELS 3 Xrotation Yrotation Zrotation
				JOINT LeftFoot
				{
					OFFSET -0.024144 -32.638630 -3.012600
					CHANNELS 3 Xrotation Yrotation Zrotation
					JOINT LeftToeBase
					{
						OFFSET 0.970200 -13.225400 11.864200
						CHANNELS 3 Xrotation Yrotation Zrotation
						End Site
						{
							OFFSET 0 0 0
						}
					}
				}
			}
		}
	}
	JOINT RightUpLeg_virtual
	{
		OFFSET 0.000000 0.000000 0.000000
		CHANNELS 3 Xrotation Yrotation Zrotation
		JOINT RightUpLeg
		{
			OFFSET -8.479700 -4.795502 -0.379100
			CHANNELS 3 Xrotation Yrotation Zrotation
			JOINT RightLeg
			{
				OFFSET -0.023144 -32.555092 0.112900
				CHANNELS 3 Xrotation Yrotation Zrotation
				JOINT RightFoot
				{
					OFFSET 0.023144 -32.638641 -3.012700
					CHANNELS 3 Xrotation Yrotation Zrotation
					JOINT RightToeBase
					{
						OFFSET -0.970200 -13.225400 11.864200
						CHANNELS 3 Xrotation Yrotation Zrotation
						End Site
						{
							OFFSET 0 0 0
						}
					}
				}
			}
		}
	}
	JOINT Hips_virtual
	{
		OFFSET 0.000000 0.000000 0.000000
		CHANNELS 3 Xrotation Yrotation Zrotation
		JOINT Hips
		{
			OFFSET -0.000000 -0.000000 -0.000000
			CHANNELS 3 Xrotation Yrotation Zrotation
			JOINT Spine
			{
				OFFSET 0.000000 7.722000 1.166200
				CHANNELS 3 Xrotation Yrotation Zrotation
				JOINT Spine1
				{
					OFFSET 0.000000 12.024101 0.248800
					CHANNELS 3 Xrotation Yrotation Zrotation
					JOINT Spine2
					{
						OFFSET 0.000000 11.502998 -0.491200
						CHANNELS 3 Xrotation Yrotation Zrotation
						JOINT Neck_virtual
						{
							OFFSET 0.000000 0.000000 0.000000
							CHANNELS 3 Xrotation Yrotation Zrotation
							JOINT Neck
							{
								OFFSET 0.000000 18.430702 -3.123100
								CHANNELS 3 Xrotation Yrotation Zrotation
								JOINT Head
								{
									OFFSET 0.000000 9.051102 1.034000
									CHANNELS 3 Xrotation Yrotation Zrotation
									End Site
									{
										OFFSET 0 0 0
									}
								}
							}
						}
						JOINT LeftShoulder_virtual
						{
							OFFSET 0.000000 0.000000 0.000000
							CHANNELS 3 Xrotation Yrotation Zrotation
							JOINT LeftShoulder
							{
								OFFSET 6.197800 13.665199 -4.064700
								CHANNELS 3 Xrotation Yrotation Zrotation
								JOINT LeftArm
								{
									OFFSET 7.778100 -0.187103 -1.709300
									CHANNELS 3 Xrotation Yrotation Zrotation
									JOINT LeftForeArm
									{
										OFFSET 22.049376 0.000000 0.000000
										CHANNELS 3 Xrotation Yrotation Zrotation
										JOINT LeftHand
										{
											OFFSET 23.009392 0.000000 0.000000
											CHANNELS 3 Xrotation Yrotation Zrotation
											End Site
											{
												OFFSET 0 0 0
											}
										}
									}
								}
							}
						}
						JOINT RightShoulder_virtual
						{
							OFFSET 0.000000 0.000000 0.000000
							CHANNELS 3 Xrotation Yrotation Zrotation
							JOINT RightShoulder
							{
								OFFSET -6.197800 13.665199 -4.064700
								CHANNELS 3 Xrotation Yrotation Zrotation
								JOINT RightArm
								{
									OFFSET -7.778100 -0.187103 -1.709300
									CHANNELS 3 Xrotation Yrotation Zrotation
									JOINT RightForeArm
									{
										OFFSET -22.049376 0.000000 0.000000
										CHANNELS 3 Xrotation Yrotation Zrotation
										JOINT RightHand
										{
											OFFSET -23.009392 0.000000 0.000000
											CHANNELS 3 Xrotation Yrotation Zrotation
											End Site
											{
												OFFSET 0 0 0
											}
										}
									}
								}
							}
						}
					}
				}
			}
		}
	}
}
MOTION
Frames: 12
Frame Time: 0.03333333
-5.569258 107.577347 -11.570517 0.000000 0.000000 0.000000 9.969498 -11.052359 -1.252751 -134.268241 -19.238401 31.090451 124.864013 -11.853982 -3.093616 23.617636 -24.943229 6.729439 0.000000 0.000000 0.000000 9.969498 -11.052359 -1.252751 -104.187856 31.841652 -43.632833 135.126536 7.468349 0.886422 4.822109 17.776599 36.282655 0.000000 0.000000 0.000000 9.969498 -11.052359 -1.252751 -0.000001 -0.000001 -0.000000 33.184440 6.049632 2.367142 7.016413 1.371150 0.932970 0.000000 0.000000 0.000000 7.016148 1.356910 0.957111 7.978308 3.451510 1.914780 0.000000 0.000000 0.000000 7.016148 1.356910 0.957111 0.333771 -3.623988 3.511464 -39.710962 20.403436 24.454234 0.000001 -1.659876 0.000010 0.000000 0.000000 0.000000 7.016148 1.356910 0.957111 -3.152586 -6.176012 -32.353547 -43.155321 11.870934 -9.722791 0.000007 13.107170 0.000006 0.000000 0.000000 0.000000 
-5.448391 107.057236 -11.324005 0.000000 0.000000 0.000000 10.359458 -10.645265 -0.558829 -133.127600 -17.320757 32.269399 124.657127 -11.507557 -4.540159 23.794704 -26.833993 9.501269 0.000000 0.000000 0.000000 10.359458 -10.645265 -0.558829 -101.116613 30.998991 -44.684317 133.610207 7.572316 1.659719 3.470937 17.046376 35.782169 0.000000 0.000000 0.000000 10.359458 -10.645265 -0.558829 0.000001 -0.000001 0.000000 32.806447 5.739022 1.701049 6.928094 1.411406 0.809339 0.000000 0.000000 0.000000 6.927398 1.400736 0.834280 8.137134 3.359823 2.019691 0.000000 0.000000 0.000000 6.927398 1.400736 0.834280 0.260224 -3.373977 3.577373 -40.196059 20.677966 26.508050 -0.000002 -2.492642 0.000005 0.000000 0.000000 0.000000 6.927398 1.400736 0.834280 -2.438241 -4.287077 -32.305559 -40.704051 7.760218 -13.687628 -0.000004 15.033129 -0.000008 0.000000 0.000000 0.000000 
-5.290401 106.204910 -10.994108 0.000000 0.000000 0.000000 10.321663 -10.772025 -0.311706 -131.212469 -15.494528 32.660179 124.140683 -11.115586 -5.419948 23.916488 -26.162022 11.775029 0.000000 0.000000 0.000000 10.321663 -10.772025 -0.311706 -98.192999 29.285437 -44.425033 132.028649 7.807897 2.126632 1.123492 16.057353 35.547470 0.000000 0.000000 0.000000 10.321663 -10.772025 -0.311706 -0.000001 0.000000 0.000000 32.065990 5.753932 1.157331 6.762702 1.484585 0.721721 0.000000 0.000000 0.000000 6.761559 1.477280 0.747491 8.034095 3.323869 2.004735 0.000000 0.000000 0.000000 6.761559 1.477280 0.747491 0.150297 -2.880988 3.833596 -39.803354 20.644052 27.958488 -0.000002 -3.001043 -0.000005 0.000000 0.000000 0.000000 6.761559 1.477280 0.747491 -1.787092 -2.322997 -32.141975 -38.691512 3.637151 -16.996651 0.000007 17.122617 -0.000006 0.000000 0.000000 0.000000 
-5.128000 105.065247 -10.656609 0.000000 0.000000 0.000000 10.016172 -11.110501 -0.312867 -128.736840 -13.766625 32.582772 123.472280 -10.718812 -5.832498 23.336851 -24.532836 13.006471 0.000000 0.000000 0.000000 10.016172 -11.110501 -0.312867 -95.252821 27.100621 -43.238393 130.466654 8.032988 2.311466 -1.859861 14.644137 35.429988 0.000000 0.000000 0.000000 10.016172 -11.110501 -0.312867 0.000000 0.000000 0.000000 31.047608 5.985685 0.741524 6.538968 1.568813 0.665330 0.000000 0.000000 0.000000 6.537239 1.564634 0.691663 7.825991 3.324094 1.952252 0.000000 0.000000 0.000000 6.537239 1.564634 0.691663 0.039206 -2.385778 4.168920 -38.968340 20.585633 29.044389 0.000001 -3.374195 -0.000012 0.000000 0.000000 0.000000 6.537239 1.564634 0.691663 -1.195188 -0.396599 -31.763337 -37.135144 -0.211828 -19.628949 0.000012 19.145495 -0.000012 0.000000 0.000000 0.000000 
-4.991333 103.610962 -10.414621 0.000000 0.000000 0.000000 9.338294 -11.413277 -0.569936 -126.136136 -12.104799 32.007380 122.940728 -10.327039 -5.526233 21.689185 -22.981672 13.002624 0.000000 0.000000 0.000000 9.338294 -11.413277 -0.569936 -92.308886 24.710462 -41.344815 129.282804 8.117693 2.067319 -5.505366 12.361836 35.364028 0.000000 0.000000 0.000000 9.338294 -11.413277 -0.569936 0.000000 -0.000001 0.000000 29.874749 6.448837 0.555591 6.286037 1.654823 0.662580 0.000000 0.000000 0.000000 6.283576 1.652842 0.689201 7.656643 3.360289 1.905503 0.000000 0.000000 0.000000 6.283576 1.652842 0.689201 -0.029576 -2.134308 4.558659 -37.997995 20.763765 30.040524 0.000005 -3.667782 0.000004 0.000000 0.000000 0.000000 6.283576 1.652842 0.689201 -0.769571 1.209647 -31.233765 -36.055872 -3.151197 -21.148525 0.000007 20.611971 -0.000009 0.000000 0.000000 0.000000 
-4.894749 101.968445 -10.208433 0.000000 0.000000 0.000000 8.600533 -11.676295 -0.887386 -123.031187 -10.529435 31.411630 122.269293 -10.002066 -4.976273 18.945184 -21.795115 12.339936 0.000000 0.000000 0.000000 8.600533 -11.676295 -0.887386 -89.053782 22.010923 -39.042861 127.936533 8.036166 1.630182 -9.228231 9.833806 35.306569 0.000000 0.000000 0.000000 8.600533 -11.676295 -0.887386 0.000000 0.000000 0.000000 28.527755 6.959635 0.490564 5.995017 1.728299 0.680312 0.000000 0.000000 0.000000 5.991699 1.728368 0.706515 7.528502 3.405292 1.903802 0.000000 0.000000 0.000000 5.991699 1.728368 0.706515 -0.058451 -2.072650 4.852711 -37.181856 21.291341 30.847487 0.000003 -3.951672 0.000013 0.000000 0.000000 0.000000 5.991699 1.728368 0.706515 -0.388917 2.653076 -30.259241 -35.260083 -5.616373 -21.941757 0.000003 21.810548 0.000002 0.000000 0.000000 0.000000 
-4.857848 100.281029 -10.035042 0.000000 0.000000 0.000000 8.144662 -11.786518 -0.973076 -119.300920 -9.015203 31.321875 121.533818 -9.810283 -4.566678 14.179820 -22.505665 11.485987 0.000000 0.000000 0.000000 8.144662 -11.786518 -0.973076 -85.191843 19.076601 -36.681036 126.100701 7.707788 1.105445 -12.772936 7.375141 35.754193 0.000000 0.000000 0.000000 8.144662 -11.786518 -0.973076 0.000001 0.000001 -0.000000 26.991934 7.334623 0.436522 5.660318 1.770684 0.696394 0.000000 0.000000 0.000000 5.655898 1.773448 0.721041 7.533567 3.422019 2.052224 0.000000 0.000000 0.000000 5.655898 1.773448 0.721041 -0.011734 -2.375034 4.857353 -37.133252 22.332055 31.767835 -0.000003 -4.300282 0.000002 0.000000 0.000000 0.000000 5.655898 1.773448 0.721041 0.005541 3.995532 -28.538994 -34.872163 -7.698967 -22.337208 -0.000000 22.803229 0.000003 0.000000 0.000000 0.000000 
-4.871541 98.486534 -9.760668 0.000000 0.000000 0.000000 7.786053 -11.898103 -1.041141 -114.565850 -7.471520 31.417808 119.987026 -9.710086 -4.303630 9.494265 -22.397985 10.504620 0.000000 0.000000 0.000000 7.786053 -11.898103 -1.041141 -80.960623 16.107531 -34.102926 123.493905 7.354459 0.723896 -14.943940 5.593431 35.315876 0.000000 0.000000 0.000000 7.786053 -11.898103 -1.041141 0.000000 -0.000001 0.000000 25.396112 7.632850 0.380144 5.300990 1.785470 0.700159 0.000000 0.000000 0.000000 5.295676 1.790812 0.722058 7.546951 3.440091 2.196753 0.000000 0.000000 0.000000 5.295676 1.790812 0.722058 0.037768 -2.601992 4.679293 -37.240257 23.924090 31.952793 0.000000 -4.755652 0.000009 0.000000 0.000000 0.000000 5.295676 1.790812 0.722058 0.391402 5.297108 -26.175512 -34.806705 -9.994413 -22.418692 0.000001 23.779768 -0.000007 0.000000 0.000000 0.000000 
-4.930494 96.584923 -9.277786 0.000000 0.000000 0.000000 7.534567 -12.213272 -1.270237 -108.497862 -5.911790 31.682867 116.818966 -9.704662 -4.347719 7.219014 -18.581606 9.880795 0.000000 0.000000 0.000000 7.534567 -12.213272 -1.270237 -76.601726 13.206123 -31.056109 119.630435 7.091786 0.792551 -13.811173 5.578016 32.425859 0.000000 0.000000 0.000000 7.534567 -12.213272 -1.270237 0.000001 0.000000 0.000000 23.804574 7.868080 0.309912 4.923713 1.770348 0.669448 0.000000 0.000000 0.000000 4.918070 1.777819 0.687032 7.484602 3.469904 2.236893 0.000000 0.000000 0.000000 4.918070 1.777819 0.687032 0.035527 -2.400258 4.301957 -37.165648 26.260826 30.740728 -0.000001 -5.427648 -0.000005 0.000000 0.000000 0.000000 4.918070 1.777819 0.687032 0.824904 6.754559 -22.951159 -35.206849 -13.178497 -22.729072 0.000003 25.085714 0.000004 0.000000 0.000000 0.000000 
-5.001909 94.531837 -8.681890 0.000000 0.000000 0.000000 7.147932 -12.424860 -1.571270 -101.473914 -4.346443 31.619114 112.316546 -9.616768 -4.589050 6.346599 -13.136167 8.874911 0.000000 0.000000 0.000000 7.147932 -12.424860 -1.571270 -71.774257 10.481186 -27.969036 114.905201 6.943267 1.155355 -11.419608 6.256312 28.192060 0.000000 0.000000 0.000000 7.147932 -12.424860 -1.571270 0.000001 0.000001 -0.000000 22.376962 7.983438 0.253929 4.559978 1.724171 0.616617 0.000000 0.000000 0.000000 4.554691 1.732794 0.628859 7.315848 3.532059 2.117145 0.000000 0.000000 0.000000 4.554691 1.732794 0.628859 -0.019945 -1.684835 3.901625 -36.168345 29.133246 27.600140 -0.000001 -6.187312 0.000011 0.000000 0.000000 0.000000 4.554691 1.732794 0.628859 1.105550 8.057194 -19.527009 -35.743111 -17.150368 -22.459798 -0.000000 26.315737 -0.000002 0.000000 0.000000 0.000000 
-5.055967 92.282822 -8.000469 0.000000 0.000000 0.000000 6.346352 -12.294371 -1.938441 -93.538792 -2.759336 30.795417 106.293241 -9.662950 -5.088245 6.842486 -6.306808 6.648403 0.000000 0.000000 0.000000 6.346352 -12.294371 -1.938441 -66.443629 8.147011 -25.012086 109.563932 6.869023 1.854167 -8.687281 7.077305 22.069352 0.000000 0.000000 0.000000 6.346352 -12.294371 -1.938441 0.000000 0.000000 0.000000 21.287956 7.911624 0.291431 4.237571 1.645040 0.546325 0.000000 0.000000 0.000000 4.233563 1.653027 0.552186 6.946233 3.668470 1.660757 0.000000 0.000000 0.000000 4.233563 1.653027 0.552186 -0.171473 -0.073336 3.674389 -33.131844 32.306323 21.251502 -0.000000 -6.995156 -0.000007 0.000000 0.000000 0.000000 4.233563 1.653027 0.552186 1.225767 8.991197 -16.395024 -36.104571 -22.295643 -21.151276 0.000001 27.342675 -0.000007 0.000000 0.000000 0.000000 
-5.140255 89.886681 -7.331001 0.000000 0.000000 0.000000 5.257089 -11.706195 -2.250565 -85.110092 -1.302691 29.126570 99.384129 -8.800775 -5.508138 8.018873 -0.571335 3.923492 0.000000 0.000000 0.000000 5.257089 -11.706195 -2.250565 -60.332748 6.089614 -22.453975 103.517568 6.952640 2.585732 -7.014383 7.686800 17.297234 0.000000 0.000000 0.000000 5.257089 -11.706195 -2.250565 0.000000 0.000000 0.000000 20.552347 7.588199 0.296527 3.974467 1.532902 0.459531 0.000000 0.000000 0.000000 3.972176 1.538983 0.459186 6.482880 3.825613 1.131002 0.000000 0.000000 0.000000 3.972176 1.538983 0.459186 -0.353147 1.896863 3.551196 -28.495991 35.091210 12.455922 0.000000 -7.692661 0.000002 0.000000 0.000000 0.000000 3.972176 1.538983 0.459186 1.183198 9.231959 -13.874699 -35.358653 -27.932906 -17.884958 -0.000000 27.677571 0.000006 0.000000 0.000000 0.000000 
